<svg width="431" height="431" viewBox="0 0 431 431" fill="none" xmlns="http://www.w3.org/2000/svg">
<path d="M327.482 81.6267C361.472 111.883 385.73 150.981 390.412 197.664C390.691 202.829 390.748 207.976 390.726 213.149C390.725 213.837 390.723 214.525 390.722 215.234C390.676 227.011 389.809 238.356 387.4 249.879C387.182 250.947 387.182 250.947 386.96 252.037C380.781 281.541 367.465 308.284 347.339 330.462C345.474 332.537 343.722 334.668 341.967 336.84C332.993 347.271 321.586 355.249 310.088 362.501C309.457 362.899 308.828 363.297 308.179 363.708C292.343 373.584 274.895 380.559 256.873 385.025C255.699 385.326 255.699 385.326 254.501 385.633C228.917 391.931 198.986 391.897 173.536 385.025C172.703 384.811 171.87 384.597 171.01 384.376C140.968 376.535 113.463 360.875 91.2038 338.953C89.8448 337.664 89.8448 337.664 88.4584 336.349C60.6091 309.223 41.99 269.951 40.9487 230.49C40.8242 224.923 40.7759 219.357 40.75 213.789C40.7445 212.999 40.7389 212.21 40.7331 211.396C40.6642 197.966 41.7096 184.967 45.1427 171.94C45.3561 171.13 45.5694 170.32 45.7892 169.486C53.7769 140.435 68.7783 115.863 89.1956 94.2567C90.024 93.3354 90.8523 92.4142 91.7058 91.4651C152.836 25.5201 261.039 24.414 327.482 81.6267Z" fill="#18181B"/>
<path d="M234.344 112.302C247.393 122.473 257.56 136.749 259.886 153.639C261.314 169.72 259.075 182.296 251.853 196.64C270.981 197.086 289.398 197.379 308.08 192.544C309.185 192.273 309.185 192.273 310.311 191.996C326.603 187.926 342.402 180.95 356.781 172.188C359.287 171.044 359.287 171.044 361.637 171.372C362.186 171.601 362.736 171.831 363.303 172.068C363.745 178.468 362.235 183.381 360.04 189.345C359.687 190.316 359.333 191.288 358.969 192.289C348.078 221.407 332.932 247.542 312.096 270.355C310.92 271.737 309.748 273.123 308.582 274.515C286.94 299.722 257.06 320.444 223.521 322.798C193.303 323.879 167.953 316.549 144.909 295.719C131.498 282.579 119 243.735 119 243.735C119 243.735 129.5 241 145.423 243.735C145.754 240.357 144.5 239 151.447 237.592C147.371 239.679 147.371 239.679 145.423 243.735C124.549 243.735 103.674 243.735 82.1674 243.735C81.5048 242.384 80.8421 241.033 80.1593 239.64C77.5938 238.81 77.5938 238.81 75.1391 238.616C75.0135 236.185 75.0135 236.185 75.1391 233.497C76.1331 232.484 76.1331 232.484 77.1472 231.449C76.7882 229.472 76.7882 229.472 76.1431 227.354C76.1431 223.259 76.1431 223.259 76.7706 221.083C76.8949 220.45 77.0191 219.817 77.1472 219.163C76.4845 218.488 75.8218 217.812 75.1391 217.116C75.0135 214.428 75.0135 214.428 75.1391 211.997C75.926 211.744 76.7129 211.49 77.5237 211.229C80.6174 210.065 80.6174 210.065 82.1674 205.854C103.042 205.854 123.916 205.854 145.423 205.854C146.086 207.543 146.748 209.232 147.431 210.973C148.922 211.48 148.922 211.48 150.443 211.997C150.443 204.226 150.443 196.455 150.443 188.449C143.637 190.507 143.637 190.507 136.836 192.585C135.988 192.837 135.139 193.089 134.265 193.348C132.963 193.742 132.963 193.742 131.636 194.144C129.358 194.592 129.358 194.592 126.346 193.568C127.597 191.454 128.852 189.343 130.111 187.233C130.461 186.641 130.81 186.049 131.17 185.439C133.356 181.787 135.703 178.421 138.395 175.139C141.115 175.629 143.572 176.223 146.164 177.215C149.783 178.315 152.762 178.449 156.53 178.403C157.722 178.396 158.914 178.389 160.143 178.383C163.325 178.322 163.325 178.322 165.683 177.688C169.477 177.017 173.201 177.122 177.035 177.195C178.717 177.213 180.397 177.23 182.079 177.247C184.707 177.278 187.335 177.315 189.963 177.362C192.514 177.406 195.066 177.43 197.618 177.451C198.39 177.47 199.162 177.489 199.958 177.509C207.988 177.547 215.268 175.514 221.217 169.816C224.905 165.336 226.752 160.826 226.752 154.983C224.75 148.22 221.472 144.881 215.707 141.333C203.445 135.203 188.419 141.685 176.459 145.584C166.513 148.606 153.766 149.571 144.419 144.424C143.756 143.411 143.094 142.397 142.411 141.353C149.279 124.686 161.219 112.738 177.561 105.587C196.662 98.645 217.457 100.465 234.344 112.302Z" fill="#FFDF20"/>
<path d="M151.447 224.283V218.14L150.443 211.997L147.431 210.973L145.423 205.854H82.1674L81.1634 207.902C80.2925 210.223 80.2925 210.223 77.5864 211.101L75.1391 211.997C75.0135 214.429 75.0135 214.429 75.1391 217.116L77.1472 219.164L76.7706 221.083C76.1431 223.259 76.1431 223.259 76.1431 227.354C76.7882 229.472 76.7882 229.472 77.1472 231.45L75.1391 233.497C75.0135 236.185 75.0135 236.185 75.1391 238.617C77.5938 238.809 77.5938 238.809 80.1593 239.64L82.1674 243.736H145.423L147.431 239.64L151.447 237.593V224.283Z" fill="#E4E4E7"/>
<path d="M176.549 215.069C180.147 216.638 182.602 218.823 185.397 221.596C186.211 222.385 187.025 223.174 187.864 223.987C189.602 226.331 189.602 226.331 189.496 228.574C188.597 230.426 188.597 230.426 186.464 232.026C183.766 235.603 184.629 238.022 185.099 242.377C186.119 249.517 187.666 256.56 189.167 263.608C189.595 265.629 190.01 267.652 190.425 269.676C190.676 270.864 190.928 272.052 191.187 273.276C191.604 276.455 191.511 278.567 190.606 281.618C189.147 283.469 189.147 283.469 187.342 285.137C184.123 288.223 181.327 291.419 178.557 294.927C172.77 292.283 167.585 288.679 164.286 283.075C161.578 274.571 165.644 263.698 167.704 255.332C170.409 245.014 170.409 245.014 170.524 234.521C169.024 232.212 167.392 230.4 165.504 228.378C167.047 224.61 169.301 222.248 172.156 219.42C172.977 218.602 173.797 217.783 174.643 216.94C175.586 216.014 175.586 216.014 176.549 215.069Z" fill="#09090B"/>
<path d="M83.015 229C82.8983 229 82.84 228.942 82.84 228.825V219.844C82.84 219.727 82.8983 219.669 83.015 219.669H84.996C85.1127 219.669 85.171 219.727 85.171 219.844V223.554H86.039L86.501 221.811L86.921 219.76C86.9303 219.732 86.9513 219.711 86.984 219.697C87.0213 219.678 87.075 219.669 87.145 219.669H89.161C89.2777 219.669 89.336 219.727 89.336 219.844V220.719C89.336 220.77 89.329 220.822 89.315 220.873C89.301 220.92 89.2893 220.962 89.28 220.999L88.426 223.05L87.831 224.17L88.44 225.276L89.469 227.614C89.4877 227.647 89.5017 227.682 89.511 227.719C89.5203 227.756 89.525 227.81 89.525 227.88V228.825C89.525 228.942 89.4667 229 89.35 229H87.264C87.2313 229 87.1893 228.995 87.138 228.986C87.0913 228.972 87.0633 228.942 87.054 228.895L86.536 226.676L86.151 225.409H85.171V228.825C85.171 228.942 85.1127 229 84.996 229H83.015ZM92.6701 229C92.5627 229 92.4694 228.96 92.3901 228.881L90.9901 227.481C90.9107 227.406 90.8711 227.313 90.8711 227.201V223.099C90.8711 222.987 90.9107 222.894 90.9901 222.819L92.3901 221.419C92.4694 221.34 92.5627 221.3 92.6701 221.3H96.4151C96.5317 221.3 96.5901 221.358 96.5901 221.475V228.825C96.5901 228.942 96.5317 229 96.4151 229H94.9591C94.8984 229 94.8517 228.988 94.8191 228.965C94.7911 228.942 94.7584 228.914 94.7211 228.881L94.3711 228.531L94.0211 228.881C93.9464 228.96 93.8531 229 93.7411 229H92.6701ZM93.4891 227.369H93.9791C94.1284 227.369 94.2311 227.339 94.2871 227.278C94.3431 227.217 94.3711 227.11 94.3711 226.956V222.931H93.4891C93.3351 222.931 93.2301 222.961 93.1741 223.022C93.1181 223.083 93.0901 223.19 93.0901 223.344V226.956C93.0901 227.11 93.1181 227.217 93.1741 227.278C93.2301 227.339 93.3351 227.369 93.4891 227.369ZM98.3959 229C98.2792 229 98.2209 228.942 98.2209 228.825V221.475C98.2209 221.358 98.2792 221.3 98.3959 221.3H102.141C102.248 221.3 102.342 221.34 102.421 221.419L103.821 222.819C103.9 222.894 103.94 222.987 103.94 223.099V228.825C103.94 228.942 103.882 229 103.765 229H101.896C101.779 229 101.721 228.942 101.721 228.825V223.379C101.721 223.16 101.611 223.05 101.392 223.05H100.44V228.825C100.44 228.942 100.382 229 100.265 229H98.3959ZM107.326 229C107.219 229 107.126 228.96 107.046 228.881L105.646 227.481C105.567 227.406 105.527 227.313 105.527 227.201V223.099C105.527 222.987 105.567 222.894 105.646 222.819L107.046 221.419C107.126 221.34 107.219 221.3 107.326 221.3H111.071C111.188 221.3 111.246 221.358 111.246 221.475V228.825C111.246 228.942 111.188 229 111.071 229H109.615C109.555 229 109.508 228.988 109.475 228.965C109.447 228.942 109.415 228.914 109.377 228.881L109.027 228.531L108.677 228.881C108.603 228.96 108.509 229 108.397 229H107.326ZM108.145 227.369H108.635C108.785 227.369 108.887 227.339 108.943 227.278C108.999 227.217 109.027 227.11 109.027 226.956V222.931H108.145C107.991 222.931 107.886 222.961 107.83 223.022C107.774 223.083 107.746 223.19 107.746 223.344V226.956C107.746 227.11 107.774 227.217 107.83 227.278C107.886 227.339 107.991 227.369 108.145 227.369ZM113.052 229C112.935 229 112.877 228.942 112.877 228.825V221.475C112.877 221.358 112.935 221.3 113.052 221.3H114.116C114.205 221.3 114.282 221.34 114.347 221.419L115.033 222.21L115.796 221.384C115.847 221.328 115.913 221.3 115.992 221.3H116.748C116.865 221.3 116.923 221.358 116.923 221.475V222.98C116.923 223.055 116.918 223.106 116.909 223.134C116.9 223.157 116.874 223.183 116.832 223.211L115.096 224.492V228.825C115.096 228.942 115.038 229 114.921 229H113.052ZM120.894 229C120.847 229 120.796 228.993 120.74 228.979C120.689 228.965 120.64 228.953 120.593 228.944L119.347 228.636L117.919 228.16C117.779 228.113 117.709 227.978 117.709 227.754V223.099C117.709 222.987 117.749 222.894 117.828 222.819L119.228 221.419C119.307 221.34 119.401 221.3 119.508 221.3H121.748C121.855 221.3 121.949 221.34 122.028 221.419L123.428 222.819C123.507 222.894 123.547 222.987 123.547 223.099V225.969H119.788L119.739 226.9L120.733 227.229L122.518 227.355C122.597 227.369 122.637 227.423 122.637 227.516V228.825C122.637 228.942 122.579 229 122.462 229H120.894ZM120.614 224.87H120.747C120.976 224.87 121.158 224.784 121.293 224.611C121.433 224.438 121.503 224.205 121.503 223.911V223.771C121.503 223.482 121.433 223.251 121.293 223.078C121.158 222.905 120.976 222.819 120.747 222.819H120.607C120.383 222.819 120.203 222.905 120.068 223.078C119.937 223.251 119.872 223.482 119.872 223.771V223.911C119.872 224.205 119.937 224.438 120.068 224.611C120.203 224.784 120.385 224.87 120.614 224.87ZM128.889 229C128.828 229 128.779 228.991 128.742 228.972C128.709 228.953 128.688 228.928 128.679 228.895L127.874 225.724H127.223V224.044H127.874L128.679 221.419C128.688 221.382 128.709 221.356 128.742 221.342C128.779 221.323 128.828 221.314 128.889 221.314H130.66C130.777 221.314 130.835 221.372 130.835 221.489V222.231C130.835 222.296 130.83 222.348 130.821 222.385C130.812 222.422 130.798 222.462 130.779 222.504L129.743 224.891V225.129L130.835 227.81C130.858 227.861 130.875 227.908 130.884 227.95C130.893 227.987 130.898 228.029 130.898 228.076V228.825C130.898 228.942 130.84 229 130.723 229H128.889ZM125.179 229C125.062 229 125.004 228.942 125.004 228.825V219.844C125.004 219.727 125.062 219.669 125.179 219.669H127.048C127.165 219.669 127.223 219.727 127.223 219.844V228.825C127.223 228.942 127.165 229 127.048 229H125.179ZM132.049 228.944C131.933 228.944 131.874 228.881 131.874 228.755V226.529C131.874 226.403 131.933 226.34 132.049 226.34H134.289C134.406 226.34 134.464 226.403 134.464 226.529V228.755C134.464 228.881 134.406 228.944 134.289 228.944H132.049ZM136.035 231.1C135.918 231.1 135.86 231.042 135.86 230.925V221.475C135.86 221.358 135.918 221.3 136.035 221.3H137.484C137.568 221.3 137.649 221.34 137.729 221.419L138.079 221.769L138.429 221.419C138.503 221.34 138.597 221.3 138.709 221.3H139.78C139.887 221.3 139.98 221.34 140.06 221.419L141.46 222.819C141.539 222.894 141.579 222.987 141.579 223.099V227.201C141.579 227.313 141.539 227.406 141.46 227.481L140.06 228.881C139.98 228.96 139.887 229 139.78 229H138.709C138.597 229 138.503 228.96 138.429 228.881L138.079 228.531V230.925C138.079 231.042 138.02 231.1 137.904 231.1H136.035ZM138.079 227.369H138.961C139.115 227.369 139.22 227.339 139.276 227.278C139.332 227.217 139.36 227.11 139.36 226.956V223.344C139.36 223.19 139.332 223.083 139.276 223.022C139.22 222.961 139.115 222.931 138.961 222.931H138.471C138.321 222.931 138.219 222.961 138.163 223.022C138.107 223.083 138.079 223.19 138.079 223.344V227.369ZM143.306 229C143.189 229 143.131 228.942 143.131 228.825V219.844C143.131 219.727 143.189 219.669 143.306 219.669H145.175C145.292 219.669 145.35 219.727 145.35 219.844V228.825C145.35 228.942 145.292 229 145.175 229H143.306Z" fill="#09090B"/>
<path d="M168 153.5C161.2 154.7 147.833 149.667 142 147C136 155.8 139.5 166.667 142 171C143.833 172.5 150 175.5 160 175.5C170 175.5 170 173.5 177 173.5C186 173.5 184 175.5 195.5 175.5C212.763 175.5 221 168 221 157.5C221 147 210.5 141.5 201 142.5C191.5 143.5 176.5 152 168 153.5Z" fill="white"/>
<circle cx="153" cy="162" r="8" fill="#09090B"/>
<circle cx="148.048" cy="163.905" r="1.52381" fill="white"/>
<path d="M154.15 155.712C154.181 155.195 153.787 154.743 153.27 154.779C152.609 154.824 151.957 154.959 151.331 155.183C150.409 155.511 149.564 156.023 148.845 156.688C148.127 157.353 147.552 158.156 147.153 159.049C146.882 159.656 146.696 160.297 146.6 160.951C146.525 161.464 146.945 161.893 147.463 161.901C147.981 161.909 148.4 161.492 148.498 160.983C148.576 160.582 148.699 160.19 148.866 159.814C149.162 159.153 149.588 158.558 150.12 158.065C150.652 157.573 151.278 157.194 151.961 156.95C152.348 156.812 152.749 156.72 153.155 156.673C153.67 156.615 154.118 156.23 154.15 155.712Z" fill="white"/>
<circle cx="198" cy="161" r="8" fill="#09090B"/>
<circle cx="193.048" cy="162.905" r="1.52381" fill="white"/>
<path d="M199.15 154.712C199.181 154.195 198.787 153.743 198.27 153.779C197.609 153.824 196.957 153.959 196.331 154.183C195.409 154.511 194.564 155.023 193.845 155.688C193.127 156.353 192.552 157.156 192.153 158.049C191.882 158.656 191.696 159.297 191.6 159.951C191.525 160.464 191.945 160.893 192.463 160.901C192.981 160.909 193.4 160.492 193.498 159.983C193.576 159.582 193.699 159.19 193.866 158.814C194.162 158.153 194.588 157.558 195.12 157.065C195.652 156.573 196.278 156.194 196.961 155.95C197.348 155.812 197.749 155.72 198.155 155.673C198.67 155.615 199.118 155.23 199.15 154.712Z" fill="white"/>
<rect x="41" y="4" width="42.6333" height="30" rx="3" fill="#444444"/>
<rect x="41.5" y="4.5" width="41.6333" height="29" rx="2.5" stroke="white" stroke-opacity="0.0980392"/>
<path d="M48.7656 14V22H47.8438V14H48.7656ZM52.8916 22.125C52.3499 22.125 51.8747 21.9961 51.4658 21.7383C51.0596 21.4805 50.7419 21.1198 50.5127 20.6562C50.2861 20.1927 50.1729 19.651 50.1729 19.0312C50.1729 18.4062 50.2861 17.8607 50.5127 17.3945C50.7419 16.9284 51.0596 16.5664 51.4658 16.3086C51.8747 16.0508 52.3499 15.9219 52.8916 15.9219C53.4333 15.9219 53.9072 16.0508 54.3135 16.3086C54.7223 16.5664 55.04 16.9284 55.2666 17.3945C55.4958 17.8607 55.6104 18.4062 55.6104 19.0312C55.6104 19.651 55.4958 20.1927 55.2666 20.6562C55.04 21.1198 54.7223 21.4805 54.3135 21.7383C53.9072 21.9961 53.4333 22.125 52.8916 22.125ZM52.8916 21.2969C53.3031 21.2969 53.6416 21.1914 53.9072 20.9805C54.1729 20.7695 54.3695 20.4922 54.4971 20.1484C54.6247 19.8047 54.6885 19.4323 54.6885 19.0312C54.6885 18.6302 54.6247 18.2565 54.4971 17.9102C54.3695 17.5638 54.1729 17.2839 53.9072 17.0703C53.6416 16.8568 53.3031 16.75 52.8916 16.75C52.4801 16.75 52.1416 16.8568 51.876 17.0703C51.6104 17.2839 51.4137 17.5638 51.2861 17.9102C51.1585 18.2565 51.0947 18.6302 51.0947 19.0312C51.0947 19.4323 51.1585 19.8047 51.2861 20.1484C51.4137 20.4922 51.6104 20.7695 51.876 20.9805C52.1416 21.1914 52.4801 21.2969 52.8916 21.2969ZM59.4395 24.375C58.9941 24.375 58.6113 24.3177 58.291 24.2031C57.9707 24.0911 57.7038 23.9427 57.4902 23.7578C57.2793 23.5755 57.1113 23.3802 56.9863 23.1719L57.7207 22.6563C57.804 22.7656 57.9095 22.8906 58.0371 23.0312C58.1647 23.1745 58.3392 23.2982 58.5605 23.4023C58.7845 23.5091 59.0775 23.5625 59.4395 23.5625C59.9238 23.5625 60.3236 23.4453 60.6387 23.2109C60.9538 22.9766 61.1113 22.6094 61.1113 22.1094V20.8906H61.0332C60.9655 21 60.8691 21.1354 60.7441 21.2969C60.6217 21.4557 60.4447 21.5977 60.2129 21.7227C59.9837 21.8451 59.6738 21.9062 59.2832 21.9062C58.7988 21.9062 58.3639 21.7917 57.9785 21.5625C57.5957 21.3333 57.2923 21 57.0684 20.5625C56.847 20.125 56.7363 19.5937 56.7363 18.9687C56.7363 18.3542 56.8444 17.819 57.0605 17.3633C57.2767 16.9049 57.5775 16.5508 57.9629 16.3008C58.3483 16.0482 58.7936 15.9219 59.2988 15.9219C59.6895 15.9219 59.9993 15.987 60.2285 16.1172C60.4603 16.2448 60.6374 16.3906 60.7598 16.5547C60.8848 16.7161 60.9811 16.849 61.0488 16.9531H61.1426V16H62.0332V22.1719C62.0332 22.6875 61.916 23.1068 61.6816 23.4297C61.4499 23.7552 61.1374 23.9935 60.7441 24.1445C60.3535 24.2982 59.9186 24.375 59.4395 24.375ZM59.4082 21.0781C59.778 21.0781 60.0905 20.9935 60.3457 20.8242C60.6009 20.6549 60.7949 20.4115 60.9277 20.0938C61.0605 19.776 61.127 19.3958 61.127 18.9531C61.127 18.5208 61.0618 18.1393 60.9316 17.8086C60.8014 17.4779 60.6087 17.2187 60.3535 17.0312C60.0983 16.8437 59.7832 16.75 59.4082 16.75C59.0176 16.75 58.6921 16.849 58.4316 17.0469C58.1738 17.2448 57.9798 17.5104 57.8496 17.8438C57.722 18.1771 57.6582 18.5469 57.6582 18.9531C57.6582 19.3698 57.7233 19.7383 57.8535 20.0586C57.9863 20.3763 58.1816 20.6263 58.4395 20.8086C58.6999 20.9883 59.0228 21.0781 59.4082 21.0781ZM66.1582 22.125C65.6165 22.125 65.1413 21.9961 64.7324 21.7383C64.3262 21.4805 64.0085 21.1198 63.7793 20.6562C63.5527 20.1927 63.4395 19.651 63.4395 19.0312C63.4395 18.4062 63.5527 17.8607 63.7793 17.3945C64.0085 16.9284 64.3262 16.5664 64.7324 16.3086C65.1413 16.0508 65.6165 15.9219 66.1582 15.9219C66.6999 15.9219 67.1738 16.0508 67.5801 16.3086C67.9889 16.5664 68.3066 16.9284 68.5332 17.3945C68.7624 17.8607 68.877 18.4062 68.877 19.0312C68.877 19.651 68.7624 20.1927 68.5332 20.6562C68.3066 21.1198 67.9889 21.4805 67.5801 21.7383C67.1738 21.9961 66.6999 22.125 66.1582 22.125ZM66.1582 21.2969C66.5697 21.2969 66.9082 21.1914 67.1738 20.9805C67.4395 20.7695 67.6361 20.4922 67.7637 20.1484C67.8913 19.8047 67.9551 19.4323 67.9551 19.0312C67.9551 18.6302 67.8913 18.2565 67.7637 17.9102C67.6361 17.5638 67.4395 17.2839 67.1738 17.0703C66.9082 16.8568 66.5697 16.75 66.1582 16.75C65.7467 16.75 65.4082 16.8568 65.1426 17.0703C64.877 17.2839 64.6803 17.5638 64.5527 17.9102C64.4251 18.2565 64.3613 18.6302 64.3613 19.0312C64.3613 19.4323 64.4251 19.8047 64.5527 20.1484C64.6803 20.4922 64.877 20.7695 65.1426 20.9805C65.4082 21.1914 65.7467 21.2969 66.1582 21.2969ZM76.1748 14V22H75.2061V15.0156H75.1592L73.2061 16.3125V15.3281L75.2061 14H76.1748Z" fill="white"/>
</svg>
